<svg width="15" height="19" viewBox="0 0 15 19" fill="none" xmlns="http://www.w3.org/2000/svg">
<path d="M10.4545 14.0769V17.0192C10.4545 17.5606 10.0575 18 9.56818 18H1.88636C1.65129 18 1.42584 17.8967 1.25961 17.7127C1.09338 17.5288 1 17.2793 1 17.0192V5.90385C1 5.36246 1.39709 4.92308 1.88636 4.92308H3.36364C3.7596 4.92278 4.15491 4.95894 4.54545 5.03118M10.4545 14.0769H13.1136C13.6029 14.0769 14 13.6375 14 13.0962V8.84615C14 4.95795 11.4449 1.73144 8.09091 1.1081C7.70036 1.03586 7.30506 0.999704 6.90909 1H5.43182C4.94255 1 4.54545 1.43939 4.54545 1.98077V5.03118M10.4545 14.0769H5.43182C5.19674 14.0769 4.97129 13.9736 4.80506 13.7897C4.63884 13.6057 4.54545 13.3563 4.54545 13.0962V5.03118M14 10.8077V9.17308C14 8.39273 13.7198 7.64434 13.2212 7.09255C12.7225 6.54076 12.0461 6.23077 11.3409 6.23077H10.1591C9.92401 6.23077 9.69856 6.12744 9.53234 5.94351C9.36611 5.75958 9.27273 5.51012 9.27273 5.25V3.94231C9.27273 3.55592 9.20395 3.17331 9.07032 2.81634C8.93668 2.45936 8.74082 2.135 8.4939 1.86178C8.24698 1.58857 7.95384 1.37184 7.63123 1.22397C7.30861 1.07611 6.96283 1 6.61364 1H5.72727" stroke="#3D3D3E" stroke-width="1.5" stroke-linecap="round" stroke-linejoin="round"/>
</svg>
