<svg width="30" height="30" viewBox="0 0 30 30" fill="none" xmlns="http://www.w3.org/2000/svg">
<path d="M13.125 7.5H25.3125M13.125 7.5C13.125 7.99728 12.9275 8.47419 12.5758 8.82583C12.2242 9.17746 11.7473 9.375 11.25 9.375C10.7527 9.375 10.2758 9.17746 9.92417 8.82583C9.57254 8.47419 9.375 7.99728 9.375 7.5M13.125 7.5C13.125 7.00272 12.9275 6.52581 12.5758 6.17417C12.2242 5.82254 11.7473 5.625 11.25 5.625C10.7527 5.625 10.2758 5.82254 9.92417 6.17417C9.57254 6.52581 9.375 7.00272 9.375 7.5M9.375 7.5H4.6875M13.125 22.5H25.3125M13.125 22.5C13.125 22.9973 12.9275 23.4742 12.5758 23.8258C12.2242 24.1775 11.7473 24.375 11.25 24.375C10.7527 24.375 10.2758 24.1775 9.92417 23.8258C9.57254 23.4742 9.375 22.9973 9.375 22.5M13.125 22.5C13.125 22.0027 12.9275 21.5258 12.5758 21.1742C12.2242 20.8225 11.7473 20.625 11.25 20.625C10.7527 20.625 10.2758 20.8225 9.92417 21.1742C9.57254 21.5258 9.375 22.0027 9.375 22.5M9.375 22.5H4.6875M20.625 15H25.3125M20.625 15C20.625 15.4973 20.4275 15.9742 20.0758 16.3258C19.7242 16.6775 19.2473 16.875 18.75 16.875C18.2527 16.875 17.7758 16.6775 17.4242 16.3258C17.0725 15.9742 16.875 15.4973 16.875 15M20.625 15C20.625 14.5027 20.4275 14.0258 20.0758 13.6742C19.7242 13.3225 19.2473 13.125 18.75 13.125C18.2527 13.125 17.7758 13.3225 17.4242 13.6742C17.0725 14.0258 16.875 14.5027 16.875 15M16.875 15H4.6875" stroke="white" stroke-width="1.5" stroke-linecap="round" stroke-linejoin="round"/>
</svg>
