<svg width="30" height="30" viewBox="0 0 30 30" fill="none" xmlns="http://www.w3.org/2000/svg">
<path d="M14.9981 0C6.71625 0 0 6.7425 0 15.06C0 21.7125 4.2975 27.3562 10.26 29.3494C11.01 29.4881 11.2838 29.0231 11.2838 28.6237C11.2838 28.2656 11.2706 27.3187 11.2631 26.0625C7.09125 26.9719 6.21 24.0431 6.21 24.0431C5.52938 22.3031 4.545 21.84 4.545 21.84C3.18187 20.9062 4.64625 20.925 4.64625 20.925C6.15188 21.0319 6.94313 22.4775 6.94313 22.4775C8.28187 24.7781 10.455 24.1144 11.31 23.7281C11.445 22.755 11.8331 22.0912 12.2625 21.7144C8.9325 21.3337 5.43 20.0419 5.43 14.2725C5.43 12.6281 6.015 11.2837 6.975 10.23C6.81938 9.84937 6.30562 8.3175 7.12125 6.24562C7.12125 6.24562 8.38125 5.84063 11.2463 7.78875C12.4425 7.455 13.725 7.28812 15.0019 7.2825C16.275 7.29 17.5594 7.455 18.7575 7.79063C21.6206 5.8425 22.8787 6.2475 22.8787 6.2475C23.6962 8.32125 23.1825 9.85125 23.0287 10.2319C23.9906 11.2856 24.57 12.63 24.57 14.2744C24.57 20.0588 21.0637 21.3319 17.7225 21.705C18.2606 22.17 18.7406 23.0887 18.7406 24.4931C18.7406 26.5069 18.7219 28.1306 18.7219 28.6237C18.7219 29.0269 18.9919 29.4956 19.7531 29.3475C25.7062 27.3525 30 21.7106 30 15.06C30 6.7425 23.2838 0 14.9981 0Z" fill="white"/>
</svg>
