<svg width="206" height="6" viewBox="0 0 206 6" fill="none" xmlns="http://www.w3.org/2000/svg">
<path d="M205.667 3C205.667 1.52724 204.473 0.333333 203 0.333333C201.527 0.333333 200.333 1.52724 200.333 3C200.333 4.47276 201.527 5.66667 203 5.66667C204.473 5.66667 205.667 4.47276 205.667 3ZM5.66667 3C5.66667 1.52724 4.47276 0.333333 3 0.333333C1.52724 0.333333 0.333335 1.52724 0.333335 3C0.333335 4.47276 1.52724 5.66667 3 5.66667C4.47276 5.66667 5.66667 4.47276 5.66667 3ZM203 2.5L3 2.5V3.5L203 3.5V2.5Z" fill="#CBC7C7"/>
</svg>
