<svg width="182" height="6" viewBox="0 0 182 6" fill="none" xmlns="http://www.w3.org/2000/svg">
<path d="M181.667 3C181.667 1.52724 180.473 0.333333 179 0.333333C177.527 0.333333 176.333 1.52724 176.333 3C176.333 4.47276 177.527 5.66667 179 5.66667C180.473 5.66667 181.667 4.47276 181.667 3ZM5.66667 3C5.66667 1.52724 4.47276 0.333333 3 0.333333C1.52724 0.333333 0.333333 1.52724 0.333333 3C0.333333 4.47276 1.52724 5.66667 3 5.66667C4.47276 5.66667 5.66667 4.47276 5.66667 3ZM179 2.5L3 2.5V3.5L179 3.5V2.5Z" fill="#CBC7C7"/>
</svg>
