<svg width="14" height="14" viewBox="0 0 14 14" fill="none" xmlns="http://www.w3.org/2000/svg">
<path fill-rule="evenodd" clip-rule="evenodd" d="M9.30576 2.21974C9.46719 2.0526 9.66029 1.91928 9.8738 1.82756C10.0873 1.73585 10.3169 1.68757 10.5493 1.68555C10.7817 1.68353 11.0121 1.72781 11.2272 1.8158C11.4422 1.9038 11.6376 2.03374 11.8019 2.19805C11.9663 2.36236 12.0962 2.55775 12.1842 2.77282C12.2722 2.98789 12.3165 3.21833 12.3144 3.45069C12.3124 3.68306 12.2642 3.91269 12.1724 4.1262C12.0807 4.33971 11.9474 4.53281 11.7803 4.69424L9.15526 7.31924C8.82708 7.64732 8.38205 7.83162 7.91801 7.83162C7.45397 7.83162 7.00893 7.64732 6.68076 7.31924C6.51573 7.15985 6.2947 7.07166 6.06528 7.07365C5.83586 7.07565 5.6164 7.16767 5.45417 7.3299C5.29194 7.49213 5.19991 7.71159 5.19792 7.94102C5.19593 8.17044 5.28412 8.39146 5.44351 8.55649C6.09986 9.21264 6.98993 9.58124 7.91801 9.58124C8.84608 9.58124 9.73616 9.21264 10.3925 8.55649L13.0175 5.93149C13.6551 5.27138 14.0078 4.38728 13.9999 3.46959C13.9919 2.5519 13.6238 1.67405 12.9749 1.02513C12.3259 0.376198 11.4481 0.00810678 10.5304 0.000132309C9.61272 -0.00784216 8.72862 0.344938 8.06851 0.982491L6.75601 2.29499C6.67244 2.37571 6.60578 2.47226 6.55992 2.57901C6.51406 2.68577 6.48992 2.80058 6.48891 2.91677C6.48791 3.03295 6.51004 3.14817 6.55404 3.2557C6.59804 3.36324 6.66301 3.46093 6.74516 3.54309C6.82732 3.62524 6.92501 3.69021 7.03255 3.73421C7.14008 3.77821 7.2553 3.80035 7.37148 3.79934C7.48767 3.79833 7.60248 3.77419 7.70924 3.72833C7.81599 3.68247 7.91254 3.61581 7.99326 3.53224L9.30576 2.21974ZM4.93076 6.59474C5.25893 6.26667 5.70397 6.08237 6.16801 6.08237C6.63205 6.08237 7.07708 6.26667 7.40526 6.59474C7.48597 6.67831 7.58253 6.74497 7.68928 6.79083C7.79603 6.83669 7.91085 6.86083 8.02703 6.86184C8.14321 6.86285 8.25843 6.84071 8.36597 6.79671C8.4735 6.75272 8.5712 6.68774 8.65335 6.60559C8.73551 6.52343 8.80048 6.42574 8.84448 6.3182C8.88847 6.21067 8.91061 6.09545 8.9096 5.97927C8.90859 5.86308 8.88445 5.74827 8.8386 5.64151C8.79274 5.53476 8.72608 5.43821 8.64251 5.35749C7.98616 4.70134 7.09608 4.33274 6.16801 4.33274C5.23993 4.33274 4.34986 4.70134 3.69351 5.35749L1.06851 7.98249C0.734223 8.30536 0.467585 8.69156 0.284154 9.11858C0.100722 9.54559 0.00417051 10.0049 0.000132149 10.4696C-0.00390621 10.9343 0.0846497 11.3952 0.260633 11.8253C0.436616 12.2555 0.696502 12.6463 1.02513 12.9749C1.35375 13.3035 1.74453 13.5634 2.17467 13.7394C2.60481 13.9154 3.06569 14.0039 3.53041 13.9999C3.99514 13.9958 4.45441 13.8993 4.88142 13.7158C5.30844 13.5324 5.69464 13.2658 6.01751 12.9315L7.33001 11.619C7.41358 11.5383 7.48024 11.4417 7.5261 11.335C7.57195 11.2282 7.59609 11.1134 7.5971 10.9972C7.59811 10.881 7.57597 10.7658 7.53198 10.6583C7.48798 10.5507 7.42301 10.4531 7.34085 10.3709C7.2587 10.2887 7.161 10.2238 7.05347 10.1798C6.94593 10.1358 6.83071 10.1136 6.71453 10.1146C6.59835 10.1157 6.48353 10.1398 6.37678 10.1857C6.27003 10.2315 6.17347 10.2982 6.09276 10.3817L4.78026 11.6942C4.61883 11.8614 4.42572 11.9947 4.21222 12.0864C3.99871 12.1781 3.76907 12.2264 3.53671 12.2284C3.30435 12.2304 3.07391 12.1862 2.85884 12.0982C2.64377 12.0102 2.44838 11.8802 2.28407 11.7159C2.11976 11.5516 1.98981 11.3562 1.90182 11.1412C1.81383 10.9261 1.76955 10.6957 1.77157 10.4633C1.77359 10.2309 1.82187 10.0013 1.91358 9.78778C2.0053 9.57428 2.13862 9.38117 2.30576 9.21974L4.93076 6.59474Z" fill="#2F7DCD"/>
</svg>
