<svg width="40" height="16" viewBox="0 0 40 16" fill="none" xmlns="http://www.w3.org/2000/svg">
<g clip-path="url(#clip0_756_250)">
<path d="M39.7071 8.70643C40.0976 8.3159 40.0976 7.68274 39.7071 7.29221L33.3431 0.92822C32.9526 0.53772 32.3195 0.53772 31.9289 0.92822C31.5384 1.31882 31.5384 1.95192 31.9289 2.34242L37.5858 7.99932L31.9289 13.6562C31.5384 14.0467 31.5384 14.6799 31.9289 15.0704C32.3195 15.4609 32.9526 15.4609 33.3431 15.0704L39.7071 8.70643ZM-1.90755e-07 8.99932L39 8.99932L39 6.99932L-3.656e-07 6.99932L-1.90755e-07 8.99932Z" fill="#C7C7C7"/>
</g>
<defs>
<clipPath id="clip0_756_250">
<rect width="16" height="40" fill="white" transform="translate(0 16) rotate(-90)"/>
</clipPath>
</defs>
</svg>
