<svg width="14" height="14" viewBox="0 0 14 14" fill="none" xmlns="http://www.w3.org/2000/svg">
<path d="M0.88375 7.86C0.809083 7.71067 0.74375 7.54267 0.68775 7.356C0.650417 7.16933 0.63175 6.964 0.63175 6.74C0.63175 6.32933 0.734417 6.03067 0.93975 5.844C1.16375 5.63867 1.44375 5.536 1.77975 5.536H13.1198C13.1758 5.66667 13.2318 5.83467 13.2878 6.04C13.3438 6.22667 13.3718 6.432 13.3718 6.656C13.3718 7.048 13.2691 7.34667 13.0638 7.552C12.8584 7.75733 12.5784 7.86 12.2238 7.86H0.88375ZM8.33175 13.124C8.20108 13.18 8.02375 13.2267 7.79975 13.264C7.59442 13.3013 7.37042 13.32 7.12775 13.32C6.67975 13.32 6.33442 13.2267 6.09175 13.04C5.86775 12.8533 5.75575 12.508 5.75575 12.004V0.384C5.90508 0.327999 6.08242 0.281333 6.28775 0.244C6.51175 0.206666 6.75442 0.187999 7.01575 0.187999C7.46375 0.187999 7.79042 0.281332 7.99575 0.467999C8.21975 0.654666 8.33175 1 8.33175 1.504V13.124Z" fill="white"/>
</svg>
