<svg width="30" height="30" viewBox="0 0 30 30" fill="none" xmlns="http://www.w3.org/2000/svg">
<path d="M28.725 6.675C27.9112 5.2275 27.0281 4.96125 25.23 4.86C23.4338 4.73813 18.9169 4.6875 15.0037 4.6875C11.0831 4.6875 6.56437 4.73813 4.77 4.85813C2.97562 4.96125 2.09063 5.22562 1.26937 6.675C0.43125 8.12063 0 10.6106 0 14.9944C0 14.9981 0 15 0 15C0 15.0037 0 15.0056 0 15.0056V15.0094C0 19.3744 0.43125 21.8831 1.26937 23.3137C2.09063 24.7612 2.97375 25.0238 4.76813 25.1456C6.56437 25.2506 11.0831 25.3125 15.0037 25.3125C18.9169 25.3125 23.4338 25.2506 25.2319 25.1475C27.03 25.0256 27.9131 24.7631 28.7269 23.3156C29.5725 21.885 30 19.3762 30 15.0112C30 15.0112 30 15.0056 30 15.0019C30 15.0019 30 14.9981 30 14.9963C30 10.6106 29.5725 8.12063 28.725 6.675ZM11.25 20.625V9.375L20.625 15L11.25 20.625Z" fill="white"/>
</svg>
